
<svg version="1.1" xmlns="http://www.w3.org/2000/svg" xmlns:xlink="http://www.w3.org/1999/xlink" width="58.8319" height="56.85502" viewBox="0,0,58.8319,56.85502"><g transform="translate(-210.32193,-151.28271)"><g data-paper-data="{&quot;isPaintingLayer&quot;:true}" fill-rule="nonzero" stroke-linejoin="miter" stroke-miterlimit="10" stroke-dasharray="" stroke-dashoffset="0" style="mix-blend-mode: normal"><path d="M264.10669,181.74879c0,13.52152 -11.06348,24.48288 -24.71098,24.48288c-13.6475,0 -24.71098,-10.96136 -24.71098,-24.48288c0,-13.52152 11.06348,-24.48288 24.71098,-24.48288c13.6475,0 24.71098,10.96136 24.71098,24.48288z" fill="#bd735e" stroke="none" stroke-width="0" stroke-linecap="butt"/><path d="M258.19152,188.37302c-3.4615,7.08443 -11.96806,11.94094 -21.91319,11.94094c-13.01761,0 -23.57047,-8.58135 -23.57047,-19.16697c0,-1.40384 0.1856,-2.77244 0.53793,-4.09044c0,0 9.72946,-0.9548 17.23287,0.1923c3.65736,0.55913 3.91449,2.43802 7.79141,3.58936c1.33454,0.39632 2.93921,0.45196 4.47137,1.23053c1.36402,0.69314 2.67059,2.10806 3.67795,2.54824c3.01128,1.31581 6.72,1.54701 8.93377,2.16172c2.14178,0.59472 2.83837,1.59431 2.83837,1.59431z" fill="#e9e6ac" stroke="none" stroke-width="0" stroke-linecap="butt"/><path d="M266.53977,181.44466c0,1.62787 -8.21178,0.50699 -15.17817,-1.46936c-4.53465,-1.28647 -8.19107,-3.54887 -9.91298,-3.54887c-4.3672,0 -26.76389,-6.28448 -26.76389,-8.97199c0,-2.6875 20.57188,-13.68608 24.93908,-13.68608c2.02126,0 13.71574,1.55114 19.48824,7.56837c6.69974,6.98379 7.42771,18.66427 7.42771,20.10792z" fill="#522700" stroke="none" stroke-width="0" stroke-linecap="butt"/><path d="M219.39884,173.53714l-3.95376,-6.9951c0,0 9.90164,-0.00793 19.32538,1.91409c3.95304,0.80624 7.95727,2.41205 11.58916,3.74204c5.65661,2.07144 10.41003,3.47381 12.66019,0.1442c3.95691,-5.85512 -20.68001,-18.09605 -17.27051,-18.04391c6.05089,0.09252 23.42186,13.00392 23.42186,13.00392v6.23477c0,0 5.06316,8.05958 -0.4562,8.05958c-5.72632,0 -23.58596,-5.82932 -35.0953,-8.2154c-5.47636,-1.13534 -10.22083,0.15582 -10.22083,0.15582z" fill="#310500" stroke="none" stroke-width="0" stroke-linecap="butt"/><path d="M266.65383,179.71022c0,14.31937 -12.05068,25.92752 -26.91595,25.92752c-14.86527,0 -26.91595,-11.60815 -26.91595,-25.92751c0,-14.31937 12.05068,-25.92751 26.91595,-25.92751c14.86527,0 26.91595,11.60815 26.91595,25.92752z" fill="none" stroke="#000000" stroke-width="5" stroke-linecap="butt"/><path d="M213.46821,173.84128c0,0 3.89844,-1.14716 4.92093,-1.70047c0.72246,-0.39096 0.63287,-1.30494 0.63287,-1.30494c0,0 0.7603,0.64925 1.73443,0.72127c2.92926,0.21655 9.01501,0.10542 11.97199,0.61258c0.9979,0.17115 3.08969,3.16306 5.85031,3.98507c2.77365,0.82589 6.21382,-0.51851 6.21382,-0.51851c0,0 2.55746,4.73266 5.71988,5.6407c0.79146,0.22726 3.08402,0.421 4.38506,0.03368c1.05771,-0.31488 3.11362,-2.05192 3.11362,-2.05192c0,0 -0.36986,2.43675 0.16247,2.50851c5.45316,0.73507 8.06207,-0.3226 8.06207,-0.3226" fill="none" stroke="#000000" stroke-width="5" stroke-linecap="round"/><path d="M242.40015,159.04342c0.64405,1.29307 -3.43624,1.84384 -7.80047,3.29363c-4.36423,1.44977 -10.09697,3.70576 -10.74102,2.41269c-0.64405,-1.29307 3.58831,-4.429 7.95254,-5.87878c4.36423,-1.44977 9.9449,-1.12061 10.58895,0.17246z" fill="#9c5717" stroke="none" stroke-width="0" stroke-linecap="butt"/></g></g></svg>
