<svg version="1.1" xmlns="http://www.w3.org/2000/svg" xmlns:xlink="http://www.w3.org/1999/xlink" width="233.34902" height="144.98061" viewBox="0,0,233.34902,144.98061"><g transform="translate(-115.45103,-124.38932)"><g data-paper-data="{&quot;isPaintingLayer&quot;:true}" fill-rule="nonzero" stroke-linejoin="miter" stroke-miterlimit="10" stroke-dasharray="" stroke-dashoffset="0" style="mix-blend-mode: normal"><path d="M215.1298,250.12722c0.07091,0.11359 0.10637,0.1845 0.10637,0.1845l0.28349,0.75274c2.4294,2.92289 5.10198,4.58851 7.98271,6.98383c1.00385,0.8347 2.39673,1.45118 2.866,2.66947c1.75947,4.56774 0.56622,8.74065 -5.61531,8.65075c-1.66959,-0.02428 -2.61808,-2.07318 -3.92712,-3.10977c-1.93378,-2.74672 -3.69573,-5.61301 -5.59594,-8.36083c-1.60158,-2.31599 -3.11959,-2.76142 -3.26969,-6.18864c-0.051,-1.16443 0.8484,-2.1757 1.15746,-3.29952c0.8566,-3.11484 1.45624,-6.28136 2.34537,-9.39769c1.0837,-3.79828 0.23451,-7.56903 -0.1016,-11.43554c-0.4216,-4.84996 -0.03174,-10.28099 -4.02878,-13.51085c0,0 -2.3518,-2.05783 -0.29398,-4.40963c2.05783,-2.3518 4.40963,-0.29398 4.40963,-0.29398c1.08529,0.99798 2.47507,1.74327 3.25587,2.99395c3.15754,5.05776 2.64965,12.99717 3.21761,18.69298c0.24114,2.41826 0.62654,3.58472 0.33709,6.08773c-0.46429,4.01497 -1.89655,9.10175 -3.12918,12.99051z" fill="#000000" stroke="none" stroke-width="0.5" stroke-linecap="butt"/><g stroke-linecap="butt"><path d="M346.20295,216.03329c0.56719,5.92497 -1.38534,10.03395 -4.93816,15.01646c-6.09899,8.55331 -28.88745,-12.36435 -42.25991,-11.08431c-21.16229,2.02581 -26.35997,18.41552 -27.90084,2.31937c-1.54087,-16.09623 20.51913,-13.33058 20.51913,-13.33058c0,0 53.03891,-9.01722 54.57977,7.07907z" fill="#0066cc" stroke="none" stroke-width="0"/><path d="M341.26478,231.04981c-6.09905,8.55331 -28.88745,-12.36442 -42.25991,-11.08438c-21.16229,2.02581 -26.35997,18.41552 -27.90084,2.31937c-1.54087,-16.09623 31.87852,-9.73086 31.87852,-9.73086c0,0 33.14405,9.85379 40.20999,13.26768c4.76049,2.29996 -1.9277,5.22806 -1.9277,5.22806z" fill="#0f1a80" stroke="none" stroke-width="0"/><path d="M346.20295,216.03329c0.56719,5.92497 -1.38534,10.03395 -4.93816,15.01646c-6.09899,8.55331 -28.88745,-12.36435 -42.25991,-11.08431c-21.16229,2.02581 -26.35997,18.41552 -27.90084,2.31937c-1.54087,-16.09623 20.51913,-13.33058 20.51913,-13.33058c0,0 53.03891,-9.01722 54.57977,7.07907z" fill="none" stroke="#000000" stroke-width="5"/></g><g stroke-linecap="round"><path d="M138.0003,172.3058c0,0 -10.36349,-22.24022 1.0859,-28.92638c41.88137,-24.45736 109.74313,-19.09617 128.3488,-0.91483c20.78689,20.31285 29.52499,63.34943 29.52499,63.34943l-20.11512,22.76168l-72.80802,-18.41507l-46.75578,5.30142z" fill="#ff2d32" stroke="none" stroke-width="0"/><path d="M254.8289,135.73767c0,0 6.44905,0.7105 12.60584,6.72692c20.78689,20.31285 29.52492,63.34943 29.52492,63.34943l-20.11512,22.76168l-39.902,-9.2819c0,0 0.70946,-28.16585 3.6141,-41.73492c3.05031,-14.24959 14.27226,-41.82121 14.27226,-41.82121z" fill="#ab164a" stroke="none" stroke-width="0"/><path d="M138.0003,172.3058c0,0 -10.36349,-22.24022 1.0859,-28.92638c41.88137,-24.45736 109.74313,-19.09617 128.3488,-0.91483c20.78689,20.31285 29.52499,63.34943 29.52499,63.34943l-20.11512,22.76168l-53.58807,-12.01338l-20.85417,-5.93836l-45.71005,3.41507z" fill="none" stroke="#000000" stroke-width="5"/></g><path d="M238.471,218.51543c0,0 -0.13737,-30.6606 2.76786,-45.44191c2.15371,-10.95739 12.74642,-36.85528 12.74642,-36.85528" fill="none" stroke="#000000" stroke-width="3" stroke-linecap="round"/><path d="M219.91635,141.69121c1.39754,2.79508 -1.39754,4.19263 -1.39754,4.19263l-0.07485,-0.05545c-2.74617,2.27673 -5.79083,3.56571 -8.67631,5.57844c-2.85443,1.99107 -4.24609,5.28177 -8.78645,3.70765c-1.44534,-0.50109 -1.92367,-2.38186 -2.80486,-3.63231c-3.42822,-4.8648 -7.49942,-9.55581 -9.44052,-15.20093c0,0 -0.98821,-2.96464 1.97642,-3.95285c2.96464,-0.98821 3.95285,1.97642 3.95285,1.97642c1.27972,4.00714 4.00176,6.64812 6.36867,10.03427c0.95597,1.36764 2.31608,2.84845 2.41686,4.47193c0.00304,-0.00435 0.00621,-0.00839 0.00952,-0.0121c0.8187,-0.91846 1.70501,-1.79686 2.71177,-2.50415c2.77124,-1.94693 5.65898,-3.07798 8.2709,-5.26777l1.28092,-0.73334c0,0 2.79508,-1.39754 4.19263,1.39754z" fill="#000000" stroke="none" stroke-width="0.5" stroke-linecap="butt"/><path d="M194.75095,179.09133c-3.125,0 -3.125,-3.125 -3.125,-3.125v-0.67789c0,-5.44883 -0.33894,-10.82144 -0.33894,-16.26932c0,0 0,-3.125 3.125,-3.125c3.125,0 3.125,3.125 3.125,3.125c0,5.44631 0.33894,10.81953 0.33894,16.26932v0.67789c0,0 0,3.125 -3.125,3.125z" fill="#000000" stroke="none" stroke-width="0.5" stroke-linecap="butt"/><path d="M192.43197,191.38006c-1.84982,-0.00487 -3.68786,0.05283 -5.50473,0.2367c0,0 -3.10949,0.31095 -3.42044,-2.79854c-0.31095,-3.10949 2.79854,-3.42044 2.79854,-3.42044c9.02497,-0.89257 19.24109,1.80873 27.99434,-1.49999c5.08148,-1.92079 9.66679,-5.82856 13.87972,-9.17784l1.11206,-1.9461c0.53051,-0.96965 1.56014,-1.62724 2.74336,-1.62724c1.72589,0 3.125,1.39911 3.125,3.125v3.0505l-0.06147,0c0.01568,0.14081 0.02664,0.28253 0.0324,0.42525c0.08974,2.22329 -1.17839,4.29136 -1.77185,6.43587c-1.41673,5.11937 -3.12905,10.58922 -7.60875,13.96044c-6.84294,5.14968 -17.59481,3.40186 -24.39858,-0.47391c-2.5922,-1.47665 -4.70675,-2.73146 -5.45757,-5.78176l-1.14303,0.42216c0,0 -1.39306,0 -2.31898,-0.9301zM203.11192,191.64953c6.36522,4.62804 17.40269,5.08821 21.85217,-2.06362c1.00778,-1.61985 1.42039,-3.68473 1.78955,-5.76375c-3.19366,2.4052 -6.60621,4.56487 -10.20023,5.90513c-4.35094,1.62252 -8.87762,1.95028 -13.44149,1.92223z" fill="#000000" stroke="none" stroke-width="0.5" stroke-linecap="butt"/><path d="M216.50418,189.71855c3.59402,-1.34026 7.10096,-3.51263 10.29462,-5.91783c-0.36916,2.07902 -0.77693,4.16609 -1.78472,5.78594c-4.44948,7.15183 -15.5861,6.70011 -21.95132,2.07208c4.56387,0.02805 9.09048,-0.31765 13.44141,-1.94018z" data-paper-data="{&quot;noHover&quot;:false,&quot;origItem&quot;:[&quot;Path&quot;,{&quot;applyMatrix&quot;:true,&quot;segments&quot;:[[[203.11192,191.64953],[4.56387,0.02805],[6.36522,4.62804]],[[224.9641,189.58592],[-4.44948,7.15183],[1.00778,-1.61985]],[[226.75365,183.82217],[-0.36916,2.07902],[-3.19366,2.4052]],[[216.55341,189.7273],[3.59402,-1.34026],[-4.35094,1.62252]]],&quot;closed&quot;:true}]}" fill="#ffffff" stroke="none" stroke-width="0.5" stroke-linecap="butt"/><path d="M207.88561,180.024c-3.125,0 -3.125,-3.125 -3.125,-3.125v-0.67789c0,-5.44883 -0.33894,-10.82144 -0.33894,-16.26932c0,0 0,-3.125 3.125,-3.125c3.125,0 3.125,3.125 3.125,3.125c0,5.4463 0.33894,10.81953 0.33894,16.26932v0.67789c0,0 0,3.125 -3.125,3.125z" fill="#000000" stroke="none" stroke-width="0.5" stroke-linecap="butt"/><path d="M127.18216,205.06014c0.16944,1.25464 0.25388,2.52188 0.25844,3.78378c0.00134,0.3713 0.00571,0.96518 0.00589,1.67033c3.89404,1.72644 8.10922,2.83256 12.30488,2.66532c1.59882,-0.06373 3.01814,0.03431 4.31644,-1.02333c2.1999,-1.79211 3.48879,-4.86722 4.4373,-7.46008c0,0 1.09726,-2.92603 4.02329,-1.82877c2.92603,1.09726 1.82877,4.02329 1.82877,4.02329c-1.35481,3.54472 -3.26039,7.80864 -6.40891,10.16502c-5.7086,4.27236 -13.99671,2.8151 -20.89826,0.0784c-0.01025,0.02149 -0.02076,0.0406 -0.03154,0.05723c-2.41275,3.72132 -6.93891,3.7469 -9.8272,0.79658c-1.06692,-1.08984 -1.12607,-2.8556 -1.40033,-4.35589c-0.6092,-3.33243 -0.62076,-9.38309 1.85834,-12.03043c0.71818,-0.76691 1.46212,-1.23893 2.2327,-1.52869c0.13422,-0.8856 0.64958,-1.9199 2.21936,-2.36841c2.70873,-0.77392 3.67327,1.59169 3.83704,2.06533c0.91987,0.26432 2.18013,0.98858 2.18013,2.9731c0,1.13434 -0.41175,1.85692 -0.93633,2.31722z" fill="#000000" stroke="none" stroke-width="0.5" stroke-linecap="butt"/><path d="M305.60027,184.48402c1.3368,-1.41236 3.83797,-0.8482 5.7815,-0.78127c7.14023,0.24592 10.56071,7.67311 7.32925,13.78437c-0.88717,1.67779 -1.7208,3.89197 -3.52916,4.46804c-2.07597,0.66131 -3.94683,0.18814 -5.4562,-0.90366c-0.63026,-0.16505 -1.06315,-0.45364 -1.06315,-0.45364l-1.28397,-0.87735c-4.65623,-4.25865 -6.45564,3.3765 -8.5818,6.73382c0,0 -1.67774,2.63644 -4.31418,0.95871c-2.63644,-1.67774 -0.95871,-4.31418 -0.95871,-4.31418c2.76165,-4.31632 4.36845,-10.57732 10.45981,-11.2611c0.3063,-0.03438 0.61419,-0.04242 0.92226,-0.02859c-1.73988,-1.7797 -2.21915,-4.24696 0.69434,-7.32514z" fill="#000000" stroke="none" stroke-width="0.5" stroke-linecap="butt"/><path d="M196.36525,251.84382c-0.06136,-0.07409 -0.11539,-0.14651 -0.15914,-0.21739c-2.09123,-3.38814 -3.9568,-7.37025 -4.48431,-11.34246c-1.26794,-9.54756 -1.71147,-19.83187 1.50702,-28.94329c0,0 1.05105,-2.94294 3.99399,-1.89189c2.94294,1.05105 1.89189,3.99399 1.89189,3.99399c-2.58399,7.14543 -1.93138,14.09147 -1.46783,21.60011c0.11849,1.91931 0.06582,4.86025 0.80787,6.85438c1.02893,2.76508 3.28105,5.60152 4.53301,8.56117c0.229,0.35444 0.35053,0.71324 0.3997,1.05885c0.52515,1.59665 0.68978,3.23021 0.15522,4.90856c-1.43575,4.5078 -8.12003,8.10675 -12.04875,10.07734l-0.35497,-0.01392l0.02868,0.11473l-2.64357,0.66089c-0.26309,0.07191 -0.54002,0.1103 -0.82591,0.1103c-1.72589,0 -3.125,-1.39911 -3.125,-3.125c0,-0.47612 0.10648,-0.92736 0.29692,-1.33123l1.3282,-2.98845l0.06812,0.03028c0.12461,-0.29208 0.27451,-0.57359 0.45606,-0.84191c1.28054,-1.8926 3.98282,-2.25839 5.84205,-3.58691c0.39857,-0.2848 2.62003,-2.50377 3.80075,-3.68814z" fill="#000000" stroke="none" stroke-width="0.5" stroke-linecap="butt"/></g></g></svg>