<svg version="1.1" xmlns="http://www.w3.org/2000/svg" xmlns:xlink="http://www.w3.org/1999/xlink" width="111.85072" height="108.33181" viewBox="0,0,111.85072,108.33181"><defs><linearGradient x1="239.125" y1="146.51057" x2="239.125" y2="218.59512" gradientUnits="userSpaceOnUse" id="color-1"><stop offset="0" stop-color="#e8aa00"/><stop offset="1" stop-color="#c89200"/></linearGradient></defs><g transform="translate(-184.26952,-141.40491)"><g data-paper-data="{&quot;isPaintingLayer&quot;:true}" fill-rule="nonzero" stroke="none" stroke-linecap="butt" stroke-linejoin="miter" stroke-miterlimit="10" stroke-dasharray="" stroke-dashoffset="0" style="mix-blend-mode: normal"><path d="M219.57692,234.81114c0.03897,-0.62911 0.01037,-1.27685 0.09131,-1.89606c0.62515,-4.78276 0.20434,-9.42853 0.20293,-14.25489c0,0 0,-2.5 2.5,-2.5c2.5,0 2.5,2.5 2.5,2.5c-0.00152,5.03149 0.61225,10.03472 -0.26174,15.0195c-0.29657,1.69149 -0.16404,3.55541 -1.00443,5.05302c-2.02819,3.61429 -7.43263,4.69817 -11.1411,4.49806c-1.56313,-0.08435 -3.72456,0.5397 -4.639,-0.73085c-6.00828,-8.34804 7.2404,-7.27767 10.60437,-7.51038c0.38672,-0.02675 0.76792,-0.09684 1.14765,-0.1784z" fill="#000000" stroke-width="0.5"/><path d="M242.68786,242.63573c2.05701,-0.01471 4.11622,-0.03438 6.16965,0.01081c1.12844,0.02483 2.46571,-0.51648 3.38322,0.14093c0.2261,0.16201 0.43716,0.33952 0.63615,0.52949l0.09807,-0.12259l2.30533,1.84426c0.5823,0.45772 0.9563,1.16848 0.9563,1.9666c0,1.38071 -1.11929,2.5 -2.5,2.5l-2.5557,0c-3.52492,0 -10.26473,1.20334 -12.8796,-1.87717c-0.21412,-0.25224 -0.37825,-0.55087 -0.50146,-0.88291c-0.2957,-0.36506 -0.50343,-0.87797 -0.50343,-1.59861c0,-0.42605 0.07261,-0.77949 0.19307,-1.0727c0.0618,-1.47727 0.37519,-2.99847 0.53841,-3.98775c1.39848,-8.4762 7.54877,-16.24445 12.23456,-23.27733c0,0 1.38675,-2.08013 3.46688,-0.69338c2.08013,1.38675 0.69338,3.46688 0.69338,3.46688c-3.78231,5.66992 -9.26411,12.39516 -11.05143,19.01496c-0.14073,0.52121 -0.4739,2.71282 -0.68339,4.03851z" fill="#000000" stroke-width="0.5"/><path d="M192.46777,232.17463c0.37014,-0.3863 0.93344,-0.68024 1.79067,-0.68024c2.5,0 2.5,2.5 2.5,2.5l-0.01027,0.69101c-0.2407,2.34115 -0.14983,4.87494 -2.15722,6.69312c-3.36123,3.04443 -9.435,1.26872 -10.2154,-3.39243c-0.434,-2.59217 0.48184,-4.783 2.42389,-5.91511c-0.47509,-5.67635 0.31372,-11.81759 2.66723,-16.61986c0,0 1.11803,-2.23607 3.3541,-1.11803c2.23607,1.11803 1.11803,3.3541 1.11803,3.3541c-1.99735,3.89561 -2.61949,9.26127 -2.18397,14.06316c0.24379,0.12414 0.48143,0.26726 0.71293,0.42428z" fill="#000000" stroke-width="0.5"/><path d="M295.55193,233.55122c0.88437,1.32413 0.7699,3.21597 -0.5786,5.46498c-0.71702,1.19584 -2.38666,1.4713 -3.68536,1.97878c-2.09647,0.81921 -6.33166,1.92412 -8.51689,0.41332c-4.01143,-2.77338 -2.43408,-9.45089 1.10487,-11.68365c1.38632,-0.87464 3.41104,-0.88067 5.39821,-0.58871c1.53793,-2.13199 2.08798,-4.06791 -0.33427,-7.07853c-0.68262,-0.84843 -1.46847,-1.60837 -2.2027,-2.41255c0,0 -1.68168,-1.84985 0.16817,-3.53153c1.84985,-1.68168 3.53153,0.16817 3.53153,0.16817c2.69057,2.9711 5.85601,6.09229 5.51471,10.54703c-0.09609,1.25415 -0.64723,2.48246 -1.39513,3.65666c0.65919,0.38993 1.51386,1.21594 1.08921,2.77299c-0.02815,0.10321 -0.05951,0.2008 -0.09375,0.29305z" fill="#000000" stroke-width="0.5"/><g stroke-width="0"><path d="M190.25,212.59512c0,-13.04621 0,-43.33986 0,-49.75c0,-2.33625 2.15832,-4.5 4.75,-4.5c0.03388,0 2.07699,-8.22546 3.31772,-13.23323c0.54297,-2.1915 3.62885,-3.73431 5.92854,-3.70661c3.6491,0.04395 14.68553,0.17685 20.75,0.24988c2.45913,0.02962 4.12588,2.78476 4.14343,4.69327c0.02821,3.06749 0.11031,11.99669 0.11031,11.99669c0,0 45.84719,0 56.5,0c3.62446,0 5.75,2.10847 5.75,5.5c0,12.06695 0,40.37622 0,47.75c0,3.4249 -1.64148,7 -4.5,7c-17.80876,0 -82.85508,0 -92.5,0c-2.34292,0 -4.25,-2.31018 -4.25,-6z" fill="#994b00"/><g><path d="M193,217.76214c0,0 0,-45.08148 0,-52.86702c0,-2.20745 1.64586,-4.25 4.5,-4.25c16.92778,0 76.35829,0 87,0c3.18453,0 6,1.30203 6,3.5c0,10.59441 0,42.00423 0,48.75c0,2.48596 -1.54408,4.86702 -3.5,4.86702c-10.13632,0 -94,0 -94,0z" fill-opacity="0.50196" fill="#404040"/><path d="M192,216.96214c0,0 0,-45.08148 0,-52.86702c0,-2.20745 1.64586,-4.25 4.5,-4.25c16.92778,0 76.35829,0 87,0c3.18453,0 6,1.30203 6,3.5c0,10.59441 0,42.00423 0,48.75c0,2.48596 -1.54408,4.86702 -3.5,4.86702c-10.13632,0 -94,0 -94,0z" fill="#ffffff"/></g><path d="M192.5,211.94181c0,-12.72728 4.10899,-59.0852 5.32828,-63.97054c0.53358,-2.13792 1.56612,-3.643 3.82607,-3.61599c3.58603,0.04287 14.43171,0.17252 20.39136,0.24378c2.41663,0.02889 5.05457,2.71668 5.07181,4.57853c0.02772,2.9925 -0.8916,11.7034 -0.8916,11.7034c0,0 47.80478,-0.5 58.27346,-0.5c3.56182,0 5.65061,2.05693 5.65061,5.36555c0,11.77195 -0.6,38.02621 -0.6,45.21971c0,3.34116 -1.21312,6.82888 -4.02222,6.82888c-17.50095,0 -79.37302,0 -88.85123,0c-2.30242,0 -4.17654,-2.25371 -4.17654,-5.85332z" fill-opacity="0.50196" fill="#515151"/><path d="M188.75,212.99198c0,-12.18329 0,-40.4732 0,-46.45935c0,-2.18172 2.14768,-4.20236 4.72654,-4.20236c0.03372,0 2.06673,-7.6814 3.30134,-12.35793c0.54028,-2.04654 3.61092,-3.4873 5.89926,-3.46144c3.63108,0.04104 14.61301,0.16515 20.64753,0.23336c2.44699,0.02765 4.10551,2.60057 4.12296,4.38284c0.02807,2.8646 0.10976,11.20318 0.10976,11.20318c0,0 45.62079,0 56.22099,0c3.60657,0 5.7216,1.96901 5.7216,5.13621c0,11.26879 0,37.70559 0,44.59164c0,3.19836 -1.63339,6.53699 -4.47778,6.53699c-17.72081,0 -82.44592,0 -92.04321,0c-2.33134,0 -4.22901,-2.15738 -4.22901,-5.60314z" fill="url(#color-1)"/></g><path d="M235.20844,178.52286c-0.69365,1.84974 -2.54339,1.15609 -2.54339,1.15609l-0.92662,-0.43082c-6.04777,-0.46622 -11.7731,-1.08344 -17.85321,-0.55239c0,0 -1.9681,0.17114 -2.13924,-1.79696c-0.17114,-1.9681 1.79696,-2.13924 1.79696,-2.13924c6.29706,-0.54524 12.2363,0.06854 18.49852,0.54918l2.01089,0.67075c0,0 1.84974,0.69365 1.15609,2.54339z" fill="#000000" stroke-width="0.5"/><path d="M229.80592,199.32056c-2.5,0 -2.5,-2.5 -2.5,-2.5l0.04033,-2.07357c0.69353,-3.77937 0.60494,-7.54317 0.89638,-11.36135c0,0 0.19174,-2.49264 2.68438,-2.30089c2.49264,0.19174 2.30089,2.68438 2.30089,2.68438c-0.30959,3.9919 -0.24868,7.91443 -0.96231,11.87229l0.04033,1.17914c0,0 0,2.5 -2.5,2.5z" fill="#000000" stroke-width="0.5"/><path d="M239.57005,198.14861c-2.48973,-0.22634 -2.26339,-2.71607 -2.26339,-2.71607l0.22464,-2.44265c-0.00086,-3.24898 0.17862,-6.40595 0.47237,-9.63885c0,0 0.22634,-2.48973 2.71607,-2.26339c2.48973,0.22634 2.26339,2.71607 2.26339,2.71607c-0.28745,3.16037 -0.45614,6.23561 -0.45697,9.41274l-0.24004,2.66875c0,0 -0.22634,2.48973 -2.71607,2.26339z" fill="#000000" stroke-width="0.5"/><path d="M271.7477,172.57674c-2.47487,0.35355 -2.82843,-2.12132 -2.82843,-2.12132l0.0478,-0.78278c-2.55116,-4.73509 -6.5255,-9.61331 -12.35364,-7.04563c-1.65989,0.73129 -2.42229,1.6283 -3.77165,2.83796c0,0 -1.86852,1.66091 -3.52943,-0.20761c-1.66091,-1.86852 0.20761,-3.52943 0.20761,-3.52943c1.82892,-1.61404 2.74665,-2.67167 5.05714,-3.66746c8.484,-3.65649 14.85375,2.09402 18.77945,9.21792l0.51247,2.46993c0,0 0.35355,2.47487 -2.12132,2.82843z" fill="#000000" stroke-width="0.5"/><path d="M268.37377,191.76486c2.5,0 2.5,2.5 2.5,2.5l-0.04033,0.67955c-1.65339,8.8182 -9.05089,13.90249 -17.44885,16.15773c-1.30277,0.34985 -4.84373,0.31102 -6.40011,0.29988c-5.40097,-0.03867 -10.86369,-0.31313 -16.19554,-1.19566c0,0 -2.46598,-0.411 -2.05499,-2.87698c0.411,-2.46598 2.87698,-2.05499 2.87698,-2.05499c8.12876,1.365 17.16886,2.40884 24.8428,-0.83237c5.12662,-2.1653 8.49127,-4.84735 9.46035,-10.39204l-0.04033,0.21488c0,0 0,-2.5 2.5,-2.5z" fill="#000000" stroke-width="0.5"/></g></g></svg>