<svg version="1.1" xmlns="http://www.w3.org/2000/svg" xmlns:xlink="http://www.w3.org/1999/xlink" width="67.8589" height="191.89097" viewBox="0,0,67.8589,191.89097"><g transform="translate(-206.07055,-104.35875)"><g data-paper-data="{&quot;isPaintingLayer&quot;:true}" fill-rule="nonzero" stroke-linecap="butt" stroke-linejoin="miter" stroke-miterlimit="10" stroke-dasharray="" stroke-dashoffset="0" style="mix-blend-mode: normal"><g><path d="M241.75926,254.97464v-101h8.62133v101z" fill="#cdcdcd" stroke="none" stroke-width="0"/><path d="M235.74059,254.6413v-101h6.832v101z" fill="#b2b2b2" stroke="none" stroke-width="0"/><path d="M230.04726,253.6413v-101h6.832v101z" fill="#7e7e7e" stroke="none" stroke-width="0"/><path d="M230.04726,254.6413v-101h20.33333v101z" fill="none" stroke="#000000" stroke-width="2"/></g><g><path d="M244.82265,152.85875l3.75,-47l23.75,47z" data-paper-data="{&quot;index&quot;:null}" fill="#ac5300" stroke="none" stroke-width="0"/><path d="M233.32265,152.60875c0,0 0.20948,-31.13566 0.60079,-39.48356c0.18174,-3.87702 1.64921,-8.51645 1.64921,-8.51645l13.75,0.5v47.5z" fill="#924600" stroke="none" stroke-width="0"/><path d="M209.07265,153.10875l25.5,-45.75l-1,45.5z" fill="#5e2e00" stroke="none" stroke-width="0"/><path d="M207.82265,153.60875l28.5,-48.25h12.25l23.75,48.25z" fill="none" stroke="#000000" stroke-width="2"/></g><path d="M259.59049,143.4144c-0.55902,1.11803 -1.67705,0.55902 -1.67705,0.55902l-0.42204,-0.2443c-3.31039,-0.82851 -6.61466,-1.74418 -9.8824,-2.72605c-2.09936,-0.6308 -3.84933,-1.66029 -6.08376,-1.6429c0,0 -1.25,0 -1.25,-1.25c0,-1.25 1.25,-1.25 1.25,-1.25c5.42284,0.03367 11.29429,3.12544 16.57249,4.4436l0.93374,0.43359c0,0 1.11803,0.55902 0.55902,1.67705z" fill="#000000" stroke="none" stroke-width="0.5"/><path d="M238.47475,181.7282c-1.25,0 -1.25,-1.25 -1.25,-1.25l0.00067,-0.37982c0.20032,-6.03414 -0.00067,-11.91414 -0.00067,-17.92317c0,0 0,-1.25 1.25,-1.25c1.25,0 1.25,1.25 1.25,1.25c0,6.03192 0.19446,11.94673 -0.00067,18.00491l0.00067,0.29807c0,0 0,1.25 -1.25,1.25z" fill="#000000" stroke="none" stroke-width="0.5"/><path d="M244.97103,182.34193c-1.18585,0.39528 -1.58114,-0.79057 -1.58114,-0.79057l-0.36577,-1.10895c-0.51963,-2.13319 -0.24305,-3.76665 -0.02796,-5.87901c0.4319,-4.24161 0.32958,-8.80958 0.32958,-13.06609c0,0 0,-1.25 1.25,-1.25c1.25,0 1.25,1.25 1.25,1.25c0,4.35762 0.07912,9.0248 -0.34831,13.37155c-0.17802,1.81035 -0.4999,3.13803 -0.02796,4.96721l0.31212,0.92472c0,0 0.39528,1.18585 -0.79057,1.58114z" fill="#000000" stroke="none" stroke-width="0.5"/><path d="M247.04956,196.28971c-0.55902,1.11803 -1.67705,0.55902 -1.67705,0.55902l-1.30883,-0.65562c-3.59761,-1.44951 -6.83627,-1.58502 -10.67309,-1.58502c0,0 -1.25,0 -1.25,-1.25c0,-1.25 1.25,-1.25 1.25,-1.25c4.19709,0 7.76051,0.23925 11.69723,1.80442l1.40272,0.70015c0,0 1.11803,0.55902 0.55902,1.67705z" fill="#000000" stroke="none" stroke-width="0.5"/><path d="M225.80131,289.61693c1.00813,-5.44451 0.19825,-10.89394 0.58037,-16.41938c0.43871,-6.34369 1.88875,-12.37162 3.42362,-18.51754c0,0 0.30317,-1.21268 1.51585,-0.90951c1.21268,0.30317 0.90951,1.51585 0.90951,1.51585c-1.50293,6.0057 -2.92146,11.89021 -3.35526,18.08843c-0.44912,6.41704 1.51472,13.51958 -1.94547,19.27769c-2.61045,0.2421 -6.61191,0.85609 -9.09499,-0.18958c-0.78794,-0.33182 -2.1403,-0.37103 -2.25725,-1.21796c-0.42155,-3.05283 2.09795,-2.40562 3.42452,-2.59113c2.55294,-0.35701 4.10718,-0.36948 6.4738,0.80049z" fill="#000000" stroke="none" stroke-width="0.5"/><path d="M258.29933,291.46567c2.08235,-0.8085 5.22797,-1.46022 7.40276,-0.36455c2.34727,1.18257 3.65318,2.05621 1.34825,4.51356c-0.75047,0.8001 -3.32893,0.61919 -4.1716,0.61389c-2.51497,-0.01581 -4.62927,-0.65133 -6.14334,-1.92294c-0.07062,-0.04987 -0.13583,-0.10687 -0.1946,-0.16996c-1.50091,-1.36304 -2.35947,-3.39785 -2.35947,-6.12219c-1.39694,-5.58774 -2.79226,-11.51305 -4.04326,-17.15169c-0.24346,-1.09733 -0.02957,-2.27282 -0.33051,-3.3558c-1.06651,-3.83801 -2.38957,-7.83234 -2.41448,-11.84494c0,0 0,-1.25 1.25,-1.25c1.25,0 1.25,1.25 1.25,1.25c-0.02944,3.7811 1.36026,7.58394 2.33073,11.20327c1.80947,6.7483 2.73315,14.02117 4.43878,20.8437c0,1.12854 0.08722,2.97589 0.724,4.21281l0.86579,-0.43289l0.00851,0.01702zM265.80005,293.68124c0.0108,-0.00755 0.01006,-0.01624 -0.0049,-0.02623c0.00171,0.00867 0.00334,0.01741 0.0049,0.02623z" fill="#000000" stroke="none" stroke-width="0.5"/></g></g></svg>