<svg version="1.1" xmlns="http://www.w3.org/2000/svg" xmlns:xlink="http://www.w3.org/1999/xlink" width="75.16002" height="82.10308" viewBox="0,0,75.16002,82.10308"><g transform="translate(-201.79571,-153.75)"><g data-paper-data="{&quot;isPaintingLayer&quot;:true}" fill-rule="nonzero" stroke-linecap="butt" stroke-linejoin="miter" stroke-miterlimit="10" stroke-dasharray="" stroke-dashoffset="0" style="mix-blend-mode: normal"><g><path d="M275.70574,180.05882c0,0 0,11.58823 -1.47059,17.17647c-0.82353,3.05883 -3.23529,5.47059 -6.29412,6.29412c-5.58823,1.47059 -27.94118,1.47059 -27.94118,1.47059c0,0 -22.29412,0 -27.94118,-1.52941c-3.05883,-0.82353 -5.47059,-3.23529 -6.29412,-6.29412c-1.47059,-5.52941 -1.47058,-17.17647 -1.47058,-17.17647c0,0 0,-11.58823 1.47058,-17.17647c0.82353,-3.05883 3.29412,-5.52941 6.29412,-6.35294c5.58823,-1.47059 27.94118,-1.47059 27.94118,-1.47059c0,0 22.35294,0 27.94118,1.52941c3.05883,0.82353 5.47059,3.23529 6.29412,6.29412c1.52941,5.58823 1.47059,17.2353 1.47059,17.2353z" fill="#ff0000" stroke="none" stroke-width="0"/><path d="M231.95762,192.56698v-21.41176l18.58823,10.70588z" fill="#151515" stroke="#151515" stroke-width="1.25"/><path d="M273.02464,179.03629c0.04557,-0.30991 0.87041,-4.29626 1.64805,-4.17083c0.77765,0.12543 -0.35708,11.82307 -0.10334,15.43332c0.04759,0.67706 0.54696,1.24493 0.7557,1.89076c0.48583,1.50313 -1.00246,3.42049 -1.50154,5.15913c-0.32215,1.12225 -1.02698,2.18286 -1.83736,2.78578c-2.33835,0.78311 -2.59676,2.63618 -5.0668,3.28542c-2.5118,0.66022 -5.68397,0.18979 -8.25758,0.18979c-1.39038,0 -3.02454,0.85178 -4.32314,0.35159l-3.85738,0.66666c-0.43503,0 -2.93847,-0.27047 -2.93847,-0.7055c0,-0.43503 19.73534,-6.60334 20.75345,-7.90572c3.42336,-4.37921 4.70158,-16.92087 4.70158,-16.98308z" fill="#3d0000" stroke="none" stroke-width="0.5"/><path d="M275.70574,180.05882c0,0 0,11.58823 -1.47059,17.17647c-0.82353,3.05883 -3.23529,5.47059 -6.29412,6.29412c-5.58823,1.47059 -27.94118,1.47059 -27.94118,1.47059c0,0 -22.29412,0 -27.94118,-1.52941c-3.05883,-0.82353 -5.47059,-3.23529 -6.29412,-6.29412c-1.47059,-5.52941 -1.47058,-17.17647 -1.47058,-17.17647c0,0 0,-11.58823 1.47058,-17.17647c0.82353,-3.05883 3.29412,-5.52941 6.29412,-6.35294c5.58823,-1.47059 27.94118,-1.47059 27.94118,-1.47059c0,0 22.35294,0 27.94118,1.52941c3.05883,0.82353 5.47059,3.23529 6.29412,6.29412c1.52941,5.58823 1.47059,17.2353 1.47059,17.2353z" fill="none" stroke="#690000" stroke-width="2.5"/><path d="M230.7059,190.70587v-21.41176l18.58823,10.70588z" fill="#ffffff" stroke="#2c2c2c" stroke-width="1.25"/><path d="M222.38131,160.1698c1.02932,1.209 -4.43229,1.17597 -7.74389,3.9954c-3.3116,2.81943 -3.21917,7.42366 -4.24849,6.21466c-1.02932,-1.209 -0.45742,-5.01237 2.85418,-7.8318c3.3116,-2.81943 8.10888,-3.58725 9.1382,-2.37826z" fill="#e2e2e2" stroke="none" stroke-width="0"/><path d="M268.42893,168.36886c-0.95968,1.58641 -3.95116,-0.61297 -7.56277,-2.79777c-3.61161,-2.1848 -6.47572,-3.52769 -5.51604,-5.1141c0.95968,-1.58641 4.66545,-1.10132 8.27706,1.08349c3.61161,2.1848 5.76143,5.24198 4.80175,6.82839z" fill="#ff3838" stroke="none" stroke-width="0"/></g><path d="M251.69683,166.4883c0.30155,0.16136 0.5932,0.47351 0.5932,1.07729c0,1.25 -1.25,1.25 -1.25,1.25l-1.28609,-0.69098c-0.99635,-2.05599 -4.0051,-3.94492 -6.4572,-2.93893c-1.43501,0.58872 -2.50957,2.96048 -3.79838,3.90125c0,0 -1.01716,0.72655 -1.74371,-0.29062c-0.72655,-1.01717 0.29062,-1.74372 0.29062,-1.74372c1.60073,-1.11055 2.40254,-3.39576 4.26839,-4.16551c3.49704,-1.44271 7.57336,0.68428 9.38317,3.60121z" fill="#000000" stroke="none" stroke-width="0.5"/><path d="M236.75512,185.62136c-1.25,0 -1.25,-1.25 -1.25,-1.25l0.00606,-0.71742c-0.23934,-2.44454 0.00487,-4.86603 -0.48595,-7.27227c0,0 -0.24515,-1.22572 0.98058,-1.47087c1.22573,-0.24515 1.47087,0.98058 1.47087,0.98058c0.4924,2.50511 0.26962,4.98148 0.52239,7.51681l0.00605,0.96316c0,0 0,1.25 -1.25,1.25z" fill="#000000" stroke="none" stroke-width="0.5"/><path d="M240.11628,186.12553c-1.25,0 -1.25,-1.25 -1.25,-1.25l0.00966,-0.34913c-0.29585,-2.37052 -0.12489,-4.7956 -0.65212,-7.11036c0,0 -0.27116,-1.22023 0.94907,-1.4914c1.22024,-0.27116 1.4914,0.94907 1.4914,0.94907c0.52541,2.41479 0.38438,4.88287 0.69235,7.3426l0.00965,0.65921c0,0 0,1.25 -1.25,1.25z" fill="#000000" stroke="none" stroke-width="0.5"/><path d="M247.6205,193.83743c-0.55901,1.11803 -1.67705,0.55902 -1.67705,0.55902l-0.88824,-0.45179c-4.64064,-1.75229 -6.46882,1.1248 -10.46519,2.98958c0,0 -1.13495,0.52382 -1.65877,-0.61113c-0.52382,-1.13495 0.61112,-1.65877 0.61112,-1.65877c1.97425,-0.89975 3.64262,-2.81635 5.62301,-3.56172c2.22798,-0.83855 4.6551,-0.28614 6.76764,0.50122l1.12846,0.55655c0,0 1.11803,0.55902 0.55901,1.67705z" fill="#000000" stroke="none" stroke-width="0.5"/><path d="M207.06867,221.53727c-0.58567,0.59625 -1.54538,0.24675 -1.54538,0.24675l-0.16632,-0.06422c-0.34963,-0.01542 -0.70789,-0.15191 -1.0545,-0.44633c-1.20058,-0.71329 -2.36998,-1.49122 -2.49521,-2.72333c-0.10816,-1.0642 0.55248,-2.17549 1.60228,-2.92263c-0.16272,-5.65182 1.42389,-11.41912 1.42276,-17.0224c0,0 0,-0.91046 1.25,-0.91046c1.25,0 1.25,0.91046 1.25,0.91046c-0.00105,5.28959 -1.49384,10.7769 -1.4689,16.13874c0.7613,-0.05159 1.56444,0.085 2.3479,0.4764c2.42732,1.21263 2.39989,4.61939 0.04379,5.88444c-0.39462,0.21188 -0.79324,0.35276 -1.18643,0.43259z" fill="#690000" stroke="none" stroke-width="0.5"/><path d="M274.94252,222.5842c-0.03386,0.41778 -0.38013,0.93823 -1.16989,1.57c-1.38851,1.11075 -6.25108,0.61763 -7.4267,-0.5281c-2.1848,-2.12923 0.47906,-3.22712 3.2888,-3.66274c0.30728,-2.86275 0.23787,-5.72218 0.4472,-8.60284c0.27494,-3.78358 1.82373,-7.49561 1.81651,-11.28407c0,0 0,-0.91046 1.25,-0.91046c1.25,0 1.25,0.91046 1.25,0.91046c-0.00669,3.82486 -1.54549,7.55801 -1.81961,11.37477c-0.19932,2.77528 -0.15267,5.52944 -0.41669,8.28664c0.5346,-0.01283 1.00604,0.00054 1.36508,0.03622c0,0 1.23744,0.12876 1.06066,1.03007c-0.03387,0.1727 -0.10668,0.30757 -0.20227,0.41279l0.68889,0.3755c0,0 0.38949,0.56739 -0.13198,0.99175z" fill="#690000" stroke="none" stroke-width="0.5"/><path d="M232.10989,225.88405c0.6508,-6.49845 0.5993,-12.9267 0.5993,-19.46517c0,0 0,-1.25 1.25,-1.25c1.25,0 1.25,1.25 1.25,1.25c0,6.62548 0.04488,13.13806 -0.61274,19.72407c-0.22797,2.28313 0.10381,6.10867 -2.64758,7.11027c-1.62214,0.59052 -4.21244,-0.22843 -5.79759,-0.58091c-0.78242,-0.2599 -3.32336,-1.02207 -3.48326,-1.63268c-0.49636,-1.89537 1.80901,-2.82005 3.01068,-3.02789c1.90541,-0.32957 3.64934,0.16806 5.31806,0.98897l0.07664,0.115l0.03054,-0.03817l0.70624,0.56499c0.29737,-1.4153 0.27854,-3.54709 0.29971,-3.75849z" fill="#690000" stroke="none" stroke-width="0.5"/><path d="M244.57614,232.62358c0.11148,-0.1142 0.20403,-0.1759 0.20403,-0.1759l0.51853,-0.34004c1.24448,-0.96965 7.58178,-3.69308 6.63218,0.90385c-0.11384,0.5511 -2.89271,1.66373 -3.67807,1.9992c-2.89714,1.57497 -5.28196,1.02744 -6.39971,-2.37276c-0.96763,-2.94353 -0.50058,-6.75723 -0.65857,-9.80458c-0.30332,-5.85024 -1.41512,-11.53464 -1.41512,-17.4245c0,0 0,-1.25 1.25,-1.25c1.25,0 1.25,1.25 1.25,1.25c0,7.11041 1.12381,14.11776 1.56756,21.20375c0.09459,1.51047 -0.14039,4.64656 0.72918,6.01098z" fill="#690000" stroke="none" stroke-width="0.5"/></g></g></svg>